<?xml version="1.0" encoding="UTF-8"?>
<svg width="736px" height="547px" viewBox="0 0 736 547" version="1.1" xmlns="http://www.w3.org/2000/svg" xmlns:xlink="http://www.w3.org/1999/xlink">
    <title>691E5DF6-AEBF-48A7-B700-14DD74881967</title>
    <defs>
        <path d="M736,254.980444 C736.039281,276.278114 730.226076,297.177028 719.195084,315.393749 C719.195084,337.672282 708.811317,357.865822 691.968256,372.583038 C687.752099,376.261534 683.213092,379.552487 678.406311,382.415967 C678.213304,382.538235 678.013864,382.654068 677.814423,382.769901 C677.454144,382.982261 677.093865,383.194621 676.727152,383.413417 L676.386173,383.612907 L676.386173,383.612907 C660.438149,392.498115 642.464718,397.108972 624.209998,397 L139.717865,397 C135.857729,397 132.031905,396.843601 128.240393,396.534713 C114.766313,395.473222 101.526046,392.406336 88.9570734,387.435393 C86.5037423,386.465829 84.0975907,385.423333 81.7386186,384.307904 C80.61489,383.780221 79.5018841,383.237522 78.3996007,382.679808 C77.7112098,382.332309 77.0228188,381.97194 76.3408614,381.611571 C68.4147347,377.433728 60.9788183,372.385284 54.1708123,366.559726 C32.2967069,347.749746 18.7347616,321.76456 18.7347616,293.063735 C6.46432027,274.164376 -0.0449544914,252.102904 0,229.567987 C0,165.769786 50.9797663,114.050385 113.874253,114.050385 C115.804321,114.050385 117.734389,114.108301 119.664457,114.211264 C119.9411,114.211264 120.21131,114.211264 120.487953,114.249875 C131.09046,96.1735035 145.263594,79.5643491 162.306095,64.9436599 C208.782136,25.1100041 276.707667,0 352.37277,0 C415.949214,0 474.063565,17.7288727 518.57737,47.0217324 C535.445256,37.4840904 554.497387,32.4842936 573.873822,32.5104409 C636.755441,32.5104409 687.747841,84.2298419 687.747841,148.028043 C687.738479,152.064763 687.523749,156.09839 687.104485,160.113278 C717.864865,181.893524 736.105185,217.283756 736,254.980444 Z" id="path-1"></path>
    </defs>
    <g id="Visual-Design" stroke="none" stroke-width="1" fill="none" fill-rule="evenodd">
        <g id="Product---Lighthouse" transform="translate(-653.000000, -169.000000)">
            <g id="Header/-Saas-Website">
                <g id="Group-3">
                    <g id="Bitmap" transform="translate(653.000000, 169.000000)">
                        <g id="undraw_personal_settings_kihd">
                            <g id="Lighthouse-Logo-Design---Final2" transform="translate(0.000000, 12.000000)">
                                <mask id="mask-2" fill="white">
                                    <use xlink:href="#path-1"></use>
                                </mask>
                                <use id="Mask" fill="#0181C5" fill-rule="nonzero" opacity="0.1" xlink:href="#path-1"></use>
                                <g id="Group-8" mask="url(#mask-2)">
                                    <g transform="translate(30.000000, 218.000000)" id="undraw_millennial_girl_fxlt">
                                        <g transform="translate(15.000000, 0.000000)">
                                            <path d="M15.3575567,121.355407 C15.7274266,120.674893 15.9184371,119.902701 15.9108962,119.118438 C15.9108962,117.097317 14.7263774,115.457944 13.2592662,115.457944 C11.7921551,115.457944 10.6076363,117.097317 10.6076363,119.118438 C10.6000953,119.902701 10.7911058,120.674893 11.1609758,121.355407 C10.4232034,122.745316 10.4232034,124.439435 11.1609758,125.829344 C10.4232034,127.219253 10.4232034,128.913372 11.1609758,130.303281 C10.4232034,131.69319 10.4232034,133.387309 11.1609758,134.777218 C10.7908765,135.457633 10.5998495,136.229893 10.6076363,137.014187 C10.6076363,139.035308 11.7921551,140.672897 13.2592662,140.672897 C14.7263774,140.672897 15.9108962,139.035308 15.9108962,137.014187 C15.9183812,136.230496 15.7273643,135.458894 15.3575567,134.779002 C16.0953291,133.389093 16.0953291,131.694974 15.3575567,130.305065 C16.0953291,128.915156 16.0953291,127.221037 15.3575567,125.831128 C16.0953291,124.441219 16.0953291,122.747099 15.3575567,121.357191 L15.3575567,121.355407 Z" id="Path" fill="#3F3D56" fill-rule="nonzero"></path>
                                            <ellipse id="Oval" fill="#3F3D56" fill-rule="nonzero" cx="13.2592593" cy="114.130841" rx="2.65185185" ry="3.98130841"></ellipse>
                                            <ellipse id="Oval" fill="#3F3D56" fill-rule="nonzero" cx="13.2592593" cy="110.149533" rx="2.65185185" ry="3.98130841"></ellipse>
                                            <path d="M2.97583627,79.1724382 C2.57998711,78.6763169 2.21905594,78.1543459 1.89554723,77.610147 L9.5261309,76.3821134 L1.27294497,76.4420618 C-0.326865514,73.0285613 -0.422700874,69.1199199 1.00796841,65.6350033 L12.0795414,71.2665181 L1.86775249,63.9073999 C4.46746926,59.47439 9.37774159,56.8390989 14.5877331,57.0807212 C19.7977246,57.3223435 24.4323213,60.4002943 26.5935805,65.0541026 C28.7548397,69.7079109 28.079738,75.155884 24.8447407,79.1669883 C25.4627066,79.9379403 25.9944708,80.7716999 26.4308941,81.6539379 L16.5267004,86.704135 L27.088703,83.2289454 C28.5948603,87.5959008 27.7516477,92.4130992 24.8465937,96.0379166 C29.3347844,101.628928 28.6852882,109.66299 23.3547879,114.491081 C18.0242875,119.319172 9.80370139,119.319172 4.47320106,114.491081 C-0.857299281,109.66299 -1.50679545,101.628928 2.98139522,96.0379166 C-0.986219592,91.0889212 -0.986219592,84.1214336 2.98139522,79.1724382 L2.97583627,79.1724382 Z" id="Path" fill="#57B894" fill-rule="nonzero"></path>
                                            <path d="M27.84052,86.4615938 C27.8452367,89.5023999 26.795955,92.4557655 24.8625309,94.8436046 C29.3538865,100.400983 28.7039324,108.386714 23.3696731,113.185761 C18.0354138,117.984809 9.80903067,117.984809 4.47477138,113.185761 C-0.859487913,108.386714 -1.5094421,100.400983 2.98191355,94.8436046 C1.10351818,92.5359334 27.84052,84.9393975 27.84052,86.4615938 Z" id="Path" fill="#000000" fill-rule="nonzero" opacity="0.1"></path>
                                            <path d="M161.347374,125.110543 C161.624986,124.609104 161.768395,124.04003 161.762806,123.462033 C161.762806,121.972498 160.873549,120.766355 159.774074,120.766355 C158.674599,120.766355 157.785343,121.975954 157.785343,123.462033 C157.779753,124.04003 157.923162,124.609104 158.200774,125.110543 C157.646852,126.134677 157.646852,127.38343 158.200774,128.407564 C157.646852,129.431698 157.646852,130.680451 158.200774,131.704585 C157.646824,132.728097 157.646824,133.976367 158.200774,134.999878 C157.923313,135.501381 157.779915,136.070413 157.785343,136.648389 C157.785343,138.137923 158.676268,139.345794 159.774074,139.345794 C160.871881,139.345794 161.762806,138.136195 161.762806,136.648389 C161.768233,136.070413 161.624835,135.501381 161.347374,134.999878 C161.901324,133.976367 161.901324,132.728097 161.347374,131.704585 C161.901296,130.680451 161.901296,129.431698 161.347374,128.407564 C161.901296,127.38343 161.901296,126.134677 161.347374,125.110543 L161.347374,125.110543 Z" id="Path" fill="#3F3D56" fill-rule="nonzero"></path>
                                            <ellipse id="Oval" fill="#3F3D56" fill-rule="nonzero" cx="159.774074" cy="120.766355" rx="1.98888889" ry="2.65420561"></ellipse>
                                            <ellipse id="Oval" fill="#3F3D56" fill-rule="nonzero" cx="159.774074" cy="116.785047" rx="1.98888889" ry="2.65420561"></ellipse>
                                            <path d="M150.773029,93.7697445 C150.470417,93.3924514 150.194916,92.9950396 149.948514,92.5803752 L155.766548,91.6437923 L149.473117,91.6910761 C148.255012,89.0908829 148.181822,86.1146618 149.270702,83.4600584 L157.712702,87.7501536 L149.928086,82.1488424 C151.917692,78.7880271 155.656152,76.7955503 159.6183,76.9842762 C163.580449,77.1730021 167.103816,79.5113757 168.750984,83.0454185 C170.398153,86.5794614 169.893718,90.7182828 167.443472,93.7733818 C167.91546,94.3599261 168.321404,94.994661 168.654247,95.6665522 L161.101758,99.5092699 L169.157499,96.8577401 C170.30824,100.183454 169.664797,103.853422 167.447186,106.612751 C170.867503,110.870468 170.37169,116.987606 166.308323,120.66358 C162.244955,124.339554 155.978974,124.339554 151.915606,120.66358 C147.852239,116.987606 147.356426,110.870468 150.776743,106.612751 C147.750735,102.844588 147.750735,97.5379079 150.776743,93.7697445 L150.773029,93.7697445 Z" id="Path" fill="#57B894" fill-rule="nonzero"></path>
                                            <path d="M169.718519,99.6803833 C169.722101,101.928506 168.921678,104.111842 167.447068,105.876246 C170.867846,109.984354 170.371967,115.886547 166.308051,119.433353 C162.244136,122.98016 155.97731,122.98016 151.913395,119.433353 C147.84948,115.886547 147.3536,109.984354 150.774378,105.876246 C149.351711,104.170673 169.718519,98.5556176 169.718519,99.6803833 Z" id="Path" fill="#000000" fill-rule="nonzero" opacity="0.1"></path>
                                            <path d="M144.147485,36.3953892 L108.064053,36.3953892 L108.064053,28.5984352 C108.064531,28.1035255 107.867987,27.6287485 107.517757,27.2787944 C107.167528,26.9288403 106.692377,26.73245 106.197078,26.7329284 L95.6025366,26.7329284 L95.6025366,18.4263813 C95.6025366,17.7779742 95.0764852,17.2523364 94.4275679,17.2523364 L80.7730622,17.2523364 C80.1245564,17.2523364 79.5990858,17.7783854 79.5980935,18.4263813 L79.5980935,26.7329284 L67.14739,26.7329284 C66.6513015,26.731493 66.1750391,26.927403 65.8237432,27.2774091 C65.4724474,27.6274152 65.2750069,28.1027346 65.275009,28.5984352 L65.275009,36.3899872 L30.8747371,36.3899872 C30.6654389,36.3909784 30.4962963,36.5607951 30.4962963,36.7699311 L30.4962963,140.292953 C30.4962963,140.502089 30.6654389,140.672897 30.8747371,140.672897 L53.741574,140.672897 C53.9511665,140.672897 54.1208306,140.502381 54.1218169,140.292953 L54.1218169,126.359274 C54.1228033,126.149846 54.2924674,125.980316 54.5020599,125.97933 L64.1613116,125.97933 C64.3706099,125.980321 64.5397548,126.150138 64.5397525,126.359274 L64.5397525,140.285751 C64.5397431,140.494189 64.7077977,140.663719 64.9163912,140.665694 L110.105831,140.665694 C110.314719,140.663728 110.483296,140.494482 110.484272,140.285751 L110.484272,126.359274 C110.484262,126.150835 110.652317,125.981306 110.860911,125.97933 L120.520162,125.97933 C120.730165,125.97933 120.900405,126.149437 120.900405,126.359274 L120.900405,140.285751 C120.901392,140.495178 121.071056,140.664709 121.280648,140.665694 L144.147485,140.665694 C144.356373,140.663728 144.525926,140.494482 144.525926,140.285751 L144.525926,36.7753332 C144.525926,36.5661971 144.356783,36.3963804 144.147485,36.3953892 Z M50.0274475,121.1499 C50.0264613,121.357339 49.8584107,121.525258 49.6508088,121.526247 L35.5259552,121.526247 C35.4257525,121.526722 35.3294894,121.487283 35.2584657,121.416654 C35.187442,121.346024 35.1475101,121.250025 35.1475101,121.1499 L35.1475101,116.329474 C35.1470349,116.228873 35.1866945,116.132227 35.257718,116.060922 C35.3287414,115.989616 35.4252734,115.94953 35.5259552,115.94953 L49.6508088,115.94953 C49.8594023,115.951506 50.0274475,116.121035 50.0274475,116.329474 L50.0274475,121.1499 Z M50.0274519,108.694581 C50.0274519,108.902723 49.8591118,109.071734 49.6508088,109.072725 L35.5259552,109.072725 C35.4252734,109.072725 35.3287414,109.032639 35.257718,108.961333 C35.1866945,108.890028 35.1470349,108.793382 35.1475101,108.692781 L35.1475101,103.877757 C35.1470349,103.777155 35.1866945,103.68051 35.257718,103.609204 C35.3287414,103.537898 35.4252734,103.497813 35.5259552,103.497813 L49.6508088,103.497813 C49.7511779,103.498289 49.8472466,103.538587 49.9178803,103.60984 C49.988514,103.681094 50.0279266,103.777466 50.0274519,103.877757 L50.0274519,108.694581 Z M50.0274475,96.2428638 C50.0274475,96.4510054 49.8591118,96.620016 49.6508088,96.6210071 L35.5259552,96.6210071 C35.3169481,96.6210071 35.1475101,96.4517066 35.1475101,96.2428638 L35.1475101,91.4260389 C35.1470349,91.3254374 35.1866945,91.228792 35.257718,91.1574864 C35.3287414,91.0861809 35.4252734,91.0460949 35.5259552,91.0460949 L49.6508088,91.0460949 C49.8594023,91.0480707 50.0274475,91.2176 50.0274475,91.4260389 L50.0274475,96.2428638 Z M50.0274519,83.7875449 C50.027927,83.8876687 49.9884573,83.9838562 49.9177718,84.0548241 C49.8470863,84.1257919 49.7510126,84.1656925 49.6508088,84.1656925 L35.5259552,84.1656925 C35.4254394,84.1661698 35.3289012,84.1264846 35.257825,84.0554643 C35.1867488,83.984444 35.1470323,83.8879816 35.14751,83.7875449 L35.14751,78.9689192 C35.1470323,78.8684825 35.1867488,78.7720201 35.257825,78.7009998 C35.3289012,78.6299795 35.4254394,78.5902942 35.5259552,78.5907716 L49.6508088,78.5907716 C49.7510126,78.5907716 49.8470863,78.6306721 49.9177718,78.70164 C49.9884573,78.7726079 50.027927,78.8687953 50.0274519,78.9689192 L50.0274519,83.7875449 Z M50.0274475,71.3340266 C50.0274475,71.5424654 49.8594023,71.7119948 49.6508088,71.7139705 L35.5259552,71.7139705 C35.4252734,71.7139705 35.3287414,71.6738846 35.257718,71.602579 C35.1866945,71.5312735 35.1470349,71.434628 35.1475101,71.3340266 L35.1475101,66.5136002 C35.1475101,66.4134752 35.187442,66.3174771 35.2584657,66.2468472 C35.3294894,66.1762172 35.4257525,66.1367786 35.5259552,66.1372533 L49.6508088,66.1372533 C49.8584107,66.1382431 50.0264613,66.3061615 50.0274475,66.5136002 L50.0274475,71.3340266 Z M50.0274475,58.8823089 C50.0264613,59.0897476 49.8584107,59.257666 49.6508088,59.2586558 L35.5259552,59.2586558 C35.4257525,59.2591306 35.3294894,59.2196919 35.2584657,59.149062 C35.187442,59.0784321 35.1475144,58.982434 35.1475144,58.8823089 L35.1475144,54.0618826 C35.1475144,53.8527466 35.3166569,53.6829298 35.5259552,53.6819386 L49.6508088,53.6819386 C49.8594023,53.6839144 50.0274475,53.8534438 50.0274475,54.0618826 L50.0274475,58.8823089 Z M50.0274519,46.4269899 C50.0279266,46.5272801 49.988514,46.6236527 49.9178803,46.6949063 C49.8472466,46.7661598 49.7511779,46.8064575 49.6508088,46.8069339 L35.5259552,46.8069339 C35.4252734,46.8069339 35.3287414,46.766848 35.257718,46.6955424 C35.1866945,46.6242369 35.1470349,46.5275914 35.1475101,46.4269899 L35.1475101,41.610165 C35.1470349,41.5095635 35.1866945,41.4129181 35.257718,41.3416125 C35.3287414,41.270307 35.4252734,41.230221 35.5259552,41.230221 L49.6508088,41.230221 C49.7511779,41.2306975 49.8472466,41.2709951 49.9178803,41.3422487 C49.988514,41.4135022 50.0279266,41.5098748 50.0274519,41.610165 L50.0274519,46.4269899 Z M83.5104552,121.155303 C83.5104552,121.255428 83.4705233,121.351426 83.3994996,121.422056 C83.3284759,121.492685 83.2322127,121.532124 83.13201,121.531649 L69.0089585,121.531649 C68.8003557,121.531649 68.6306929,121.363732 68.6287156,121.155303 L68.6287156,116.329474 C68.6297019,116.120046 68.7993661,115.950516 69.0089585,115.94953 L83.13201,115.94953 C83.2326918,115.94953 83.3292238,115.989616 83.4002473,116.060922 C83.4712707,116.132227 83.5109303,116.228873 83.5104552,116.329474 L83.5104552,121.155303 Z M83.5104552,108.699984 C83.5109303,108.800585 83.4712707,108.89723 83.4002473,108.968536 C83.3292238,109.039842 83.2326918,109.079927 83.13201,109.079927 L69.0089585,109.079927 C68.7989561,109.079927 68.6287156,108.909821 68.6287156,108.699984 L68.6287156,103.877757 C68.6287156,103.667919 68.7989561,103.497813 69.0089585,103.497813 L83.13201,103.497813 C83.2326918,103.497813 83.3292238,103.537898 83.4002473,103.609204 C83.4712707,103.68051 83.5109303,103.777155 83.5104552,103.877757 L83.5104552,108.699984 Z M83.5104552,96.2482659 C83.5104552,96.4571087 83.3410171,96.6264092 83.13201,96.6264092 L69.0089585,96.6264092 C68.7996579,96.6264092 68.6297075,96.4573996 68.6287156,96.2482659 L68.6287156,91.4260389 C68.6297019,91.2166112 68.7993661,91.0470805 69.0089585,91.0460949 L83.13201,91.0460949 C83.2326918,91.0460949 83.3292238,91.0861809 83.4002473,91.1574864 C83.4712707,91.228792 83.5109303,91.3254374 83.5104552,91.4260389 L83.5104552,96.2482659 Z M83.5104552,83.7929469 C83.510933,83.8933836 83.4712165,83.989846 83.4001403,84.0608663 C83.3290641,84.1318866 83.2325258,84.1715719 83.13201,84.1710945 L69.0089585,84.1710945 C68.9082779,84.1715692 68.8115564,84.1319408 68.7401947,84.0609732 C68.6688331,83.9900056 68.6287156,83.8935495 68.6287156,83.7929469 L68.6287156,78.9689192 C68.6287156,78.8683166 68.6688331,78.7718605 68.7401947,78.7008929 C68.8115564,78.6299253 68.9082779,78.5902969 69.0089585,78.5907716 L83.13201,78.5907716 C83.2325258,78.5902942 83.3290641,78.6299795 83.4001403,78.7009998 C83.4712165,78.7720201 83.510933,78.8684825 83.5104552,78.9689192 L83.5104552,83.7929469 Z M83.5104552,71.3394286 C83.5109303,71.4400301 83.4712707,71.5366755 83.4002473,71.6079811 C83.3292238,71.6792866 83.2326918,71.7193726 83.13201,71.7193726 L69.0089585,71.7193726 C68.7993661,71.718387 68.6297019,71.5488563 68.6287156,71.3394286 L68.6287156,66.5136002 C68.6306929,66.3051707 68.8003557,66.1372533 69.0089585,66.1372533 L83.13201,66.1372533 C83.2322127,66.1367786 83.3284759,66.1762172 83.3994996,66.2468472 C83.4705233,66.3174771 83.5104552,66.4134752 83.5104552,66.5136002 L83.5104552,71.3394286 Z M83.5104509,58.887711 C83.5104509,58.987836 83.4705233,59.0838341 83.3994996,59.154464 C83.3284759,59.225094 83.2322127,59.2645326 83.13201,59.2640579 L69.0089585,59.2640579 C68.8003557,59.2640579 68.6306929,59.0961405 68.6287156,58.887711 L68.6287156,54.0618826 C68.6297019,53.8524549 68.7993661,53.6829242 69.0089585,53.6819386 L83.13201,53.6819386 C83.3413083,53.6829298 83.5104509,53.8527466 83.5104509,54.0618826 L83.5104509,58.887711 Z M83.5104552,46.432392 C83.5109303,46.5329934 83.4712707,46.6296389 83.4002473,46.7009445 C83.3292238,46.77225 83.2326918,46.8123359 83.13201,46.8123359 L69.0089585,46.8123359 C68.7989561,46.8123359 68.6287156,46.6422292 68.6287156,46.432392 L68.6287156,41.610165 C68.6287156,41.4003277 68.7989561,41.230221 69.0089585,41.230221 L83.13201,41.230221 C83.2326918,41.230221 83.3292238,41.270307 83.4002473,41.3416125 C83.4712707,41.4129181 83.5109303,41.5095635 83.5104552,41.610165 L83.5104552,46.432392 Z M106.397111,121.160705 C106.396634,121.260995 106.356305,121.356988 106.284995,121.427566 C106.213685,121.498144 106.117237,121.537526 106.016868,121.537051 L91.8884101,121.537051 C91.6801047,121.537051 91.5109612,121.368844 91.5099693,121.160705 L91.5099693,116.329474 C91.5099693,116.120338 91.6791118,115.950521 91.8884101,115.94953 L106.011462,115.94953 C106.221464,115.94953 106.391705,116.119637 106.391705,116.329474 L106.397111,121.160705 Z M106.397115,108.705386 C106.397593,108.8063 106.357687,108.90322 106.286272,108.974578 C106.214858,109.045936 106.117862,109.085811 106.016868,109.085334 L91.8884101,109.085334 C91.6791118,109.084338 91.5099693,108.914522 91.5099693,108.705386 L91.5099693,103.877757 C91.5099693,103.66862 91.6791118,103.498804 91.8884101,103.497808 L106.011462,103.497808 C106.112455,103.497331 106.209452,103.537206 106.280866,103.608564 C106.35228,103.679922 106.392187,103.776842 106.391705,103.877757 L106.397115,108.705386 Z M106.397111,96.2536679 C106.396119,96.4628016 106.226169,96.6318112 106.016868,96.6318112 L91.8884101,96.6318112 C91.6798129,96.6308257 91.5109556,96.4621011 91.5099693,96.2536679 L91.5099693,91.4260389 C91.5099693,91.2169028 91.6791118,91.0470861 91.8884101,91.0460949 L106.011462,91.0460949 C106.221464,91.0460949 106.391705,91.2162016 106.391705,91.4260389 L106.397111,96.2536679 Z M106.397111,83.798349 C106.397111,83.8989516 106.356993,83.9954077 106.285632,84.0663753 C106.21427,84.1373429 106.117549,84.1769713 106.016868,84.1764965 L91.8884101,84.1764965 C91.7880413,84.1764965 91.6917834,84.1366522 91.620812,84.0657366 C91.5498406,83.994821 91.5099693,83.8986388 91.5099693,83.798349 L91.5099693,78.9689192 C91.5099693,78.8686294 91.5498406,78.7724472 91.620812,78.7015315 C91.6917834,78.6306159 91.7880413,78.5907716 91.8884101,78.5907716 L106.011462,78.5907716 C106.112142,78.5902969 106.208864,78.6299253 106.280225,78.7008929 C106.351587,78.7718605 106.391706,78.8683166 106.391705,78.9689192 L106.397111,83.798349 Z M106.397111,71.3448306 C106.397111,71.5546679 106.22687,71.7247746 106.016868,71.7247746 L91.8884101,71.7247746 C91.6791118,71.7237834 91.5099693,71.5539667 91.5099693,71.3448306 L91.5099693,66.5136002 C91.5109612,66.305461 91.6801047,66.1372533 91.8884101,66.1372533 L106.011462,66.1372533 C106.111831,66.1367789 106.208279,66.1761605 106.279589,66.2467387 C106.350898,66.3173169 106.391228,66.41331 106.391705,66.5136002 L106.397111,71.3448306 Z M106.397111,58.893113 C106.396634,58.9934032 106.356305,59.0893964 106.284995,59.1599745 C106.213685,59.2305527 106.117237,59.2699343 106.016868,59.2694599 L91.8884101,59.2694599 C91.6801047,59.2694599 91.5109612,59.1012522 91.5099693,58.893113 L91.5099693,54.0618826 C91.5109454,53.8531515 91.6795217,53.6839056 91.8884101,53.6819386 L106.011462,53.6819386 C106.221054,53.6829242 106.390718,53.8524549 106.391705,54.0618826 L106.397111,58.893113 Z M106.397115,46.437794 C106.397593,46.5387083 106.357687,46.6356287 106.286272,46.7069867 C106.214858,46.7783447 106.117862,46.8182197 106.016868,46.8177423 L91.8884101,46.8177423 C91.6791118,46.8167468 91.5099693,46.6469301 91.5099693,46.437794 L91.5099693,41.610165 C91.5099693,41.4010289 91.6791118,41.2312122 91.8884101,41.2302167 L106.011462,41.2302167 C106.112455,41.2297393 106.209452,41.2696143 106.280866,41.3409723 C106.35228,41.4123303 106.392187,41.5092507 106.391705,41.610165 L106.397115,46.437794 Z M139.881916,121.1499 C139.879939,121.35833 139.710276,121.526247 139.501673,121.526247 L125.373216,121.526247 C125.272846,121.526722 125.176398,121.48734 125.105088,121.416762 C125.033779,121.346184 124.993449,121.250191 124.992973,121.1499 L124.992973,116.329474 C124.992973,116.119637 125.163213,115.949513 125.373216,115.949513 L139.496267,115.949513 C139.597903,115.948571 139.695732,115.988119 139.768108,116.059425 C139.840485,116.13073 139.881441,116.227915 139.881916,116.329474 L139.881916,121.1499 Z M139.881916,108.694581 C139.881916,108.904419 139.711676,109.07453 139.501673,109.07453 L125.373216,109.07453 C125.272222,109.075007 125.175225,109.035132 125.103811,108.963774 C125.032397,108.892416 124.992491,108.795496 124.992968,108.694581 L124.992968,103.877757 C124.992491,103.776842 125.032397,103.679922 125.103811,103.608564 C125.175225,103.537206 125.272222,103.497331 125.373216,103.497808 L139.496267,103.497808 C139.706269,103.497808 139.87651,103.667919 139.87651,103.877757 L139.881916,108.694581 Z M139.881916,96.2428638 C139.880924,96.4519975 139.710974,96.6210071 139.501673,96.6210071 L125.373216,96.6210071 C125.163915,96.6210071 124.993965,96.4519975 124.992973,96.2428638 L124.992973,91.4260389 C124.992973,91.2162016 125.163213,91.0460779 125.373216,91.0460779 L139.496267,91.0460779 C139.597903,91.0451357 139.695732,91.0846841 139.768108,91.1559897 C139.840485,91.2272952 139.881441,91.3244793 139.881916,91.4260389 L139.881916,96.2428638 Z M139.881916,83.7875449 C139.881916,83.8881475 139.841799,83.9846036 139.770437,84.0555712 C139.699075,84.1265388 139.602354,84.1661672 139.501673,84.1656924 L125.373216,84.1656924 C125.272535,84.1661672 125.175813,84.1265388 125.104452,84.0555712 C125.03309,83.9846036 124.992973,83.8881475 124.992973,83.7875449 L124.992973,78.9689192 C124.992973,78.8683166 125.03309,78.7718605 125.104452,78.7008929 C125.175813,78.6299253 125.272535,78.5902969 125.373216,78.5907716 L139.496267,78.5907716 C139.596948,78.5902969 139.693669,78.6299253 139.765031,78.7008929 C139.836392,78.7718605 139.876511,78.8683166 139.87651,78.9689192 L139.881916,83.7875449 Z M139.881916,71.3340266 C139.88093,71.5434542 139.711266,71.7129849 139.501673,71.7139705 L125.373216,71.7139705 C125.163213,71.7139705 124.992973,71.5438638 124.992973,71.3340266 L124.992973,66.5136002 C124.993449,66.41331 125.033779,66.3173169 125.105088,66.2467387 C125.176398,66.1761605 125.272846,66.1367789 125.373216,66.1372533 L139.496267,66.1372533 C139.70487,66.1372533 139.874533,66.3051707 139.87651,66.5136002 L139.881916,71.3340266 Z M139.881916,58.8823089 C139.879939,59.0907384 139.710276,59.2586558 139.501673,59.2586558 L125.373216,59.2586558 C125.272846,59.2591302 125.176398,59.2197486 125.105088,59.1491705 C125.033779,59.0785923 124.993449,58.9825991 124.992973,58.8823089 L124.992973,54.0618826 C124.993959,53.8524549 125.163623,53.6829242 125.373216,53.6819216 L139.496267,53.6819216 C139.597903,53.6809794 139.695732,53.7205278 139.768108,53.7918334 C139.840485,53.8631389 139.881441,53.960323 139.881916,54.0618826 L139.881916,58.8823089 Z M139.881916,46.4269899 C139.881916,46.6368272 139.711676,46.8069382 139.501673,46.8069382 L125.373216,46.8069382 C125.272222,46.8074156 125.175225,46.7675406 125.103811,46.6961826 C125.032397,46.6248246 124.992491,46.5279042 124.992968,46.4269899 L124.992968,41.610165 C124.992491,41.5092507 125.032397,41.4123303 125.103811,41.3409723 C125.175225,41.2696143 125.272222,41.2297393 125.373216,41.2302167 L139.496267,41.2302167 C139.706269,41.2302167 139.87651,41.4003277 139.87651,41.610165 L139.881916,46.4269899 Z" id="Shape" fill="#B4CDDC" fill-rule="nonzero"></path>
                                            <path d="M50.8929403,6.94124242 L47.8053966,8.95079201 L49.6788187,5.46634363 C49.1485568,5.03218698 48.4916227,4.79206401 47.812602,4.78420294 L47.7639651,4.78420294 C47.5491804,4.7872096 47.3345632,4.77055063 47.1226783,4.73442511 L46.0760839,5.41287855 L46.5246243,4.57956073 C45.7838827,4.31414687 45.1435622,3.81683591 44.6944351,3.15812703 L42.8228143,4.3730749 L44.0063127,2.17178846 C42.9110813,0.825943321 41.4375628,0 39.8163322,0 C37.869054,0 36.1343372,1.1854499 35.015688,3.03091701 C34.3422094,4.15620522 33.1303749,4.82490467 31.8416787,4.78235932 L31.7371994,4.78235932 C29.5881681,4.78235932 27.8444444,7.27678189 27.8444444,10.3537895 C27.8444444,13.4307971 29.5881681,15.9252336 31.7371994,15.9252336 C32.2096807,15.923306 32.6746061,15.8037154 33.0918277,15.5767748 C34.4950929,14.8393254 36.334289,14.8172019 37.8024034,15.48275 C39.075618,16.0694984 40.532865,16.0728514 41.8086445,15.4919681 C43.2641494,14.8393254 45.0853318,14.8540744 46.4777888,15.5841493 C46.8910999,15.8068349 47.3509236,15.9238549 47.8180061,15.9252336 C49.9670374,15.9252336 51.7107611,13.4307971 51.7107611,10.3537895 C51.7224504,9.16403825 51.4411945,7.99043305 50.8929403,6.94124242 Z" id="Path" fill="#F2F2F2" fill-rule="nonzero"></path>
                                            <path d="M45.0814815,13.8531204 C43.9587034,13.6518041 42.7977114,13.7699623 41.7465013,14.1925329 C40.4718791,14.7277071 39.0159041,14.7277071 37.741282,14.1925329 C36.2728817,13.5781963 34.4315258,13.5917728 33.0297891,14.2790831 C32.6117098,14.4874682 32.1461008,14.5969634 31.6730954,14.5981308 C29.7632742,14.5981308 28.1759606,12.7856682 27.8444444,10.3962043 C28.2259415,10.13404 28.5501679,9.80502204 28.799355,9.42718168 C29.918222,7.73011927 31.6532765,6.63551402 33.6009338,6.63551402 C35.548591,6.63551402 37.2620249,7.70126921 38.3808919,9.38814925 C39.0597297,10.4216732 40.2635322,11.0449517 41.5537174,11.0309057 L41.6023638,11.0309057 C43.1248156,11.0292086 44.4418716,12.1781198 45.0814815,13.8531204 Z" id="Path" fill="#000000" fill-rule="nonzero" opacity="0.03"></path>
                                            <path d="M157.19782,20.5465509 L154.967772,21.8823732 L156.320939,19.5577634 C155.937826,19.2686703 155.463608,19.1085051 154.97331,19.1026072 L154.938235,19.1026072 C154.783068,19.1039206 154.628062,19.0928365 154.474873,19.0694733 L153.719831,19.5228855 L154.042893,18.9665836 C153.507797,18.78928 153.045351,18.4573712 152.72111,18.0179056 L151.369789,18.8392794 L152.222672,17.3709212 C151.432555,16.47456 150.376605,15.9252336 149.193277,15.9252336 C147.786574,15.9252336 146.534941,16.7152173 145.726364,17.946406 C145.24051,18.6972067 144.364541,19.1429302 143.43355,19.1130706 L143.357861,19.1130706 C141.805319,19.1130706 140.548148,20.7767448 140.548148,22.8275633 C140.548148,24.8783819 141.805319,26.5420561 143.357861,26.5420561 C143.69966,26.5407503 144.036026,26.4611634 144.338122,26.3101183 C145.407818,25.8197344 146.651271,25.7967898 147.740423,26.2473381 C148.660229,26.6356663 149.711556,26.6356663 150.631362,26.2473381 C151.711814,25.8047963 152.94241,25.8270662 154.004126,26.3083744 C154.303387,26.4559712 154.63572,26.5337085 154.97331,26.5350805 C156.525852,26.5350805 157.784869,24.8714063 157.784869,22.8205878 C157.794298,22.0280491 157.592414,21.246016 157.19782,20.5465509 L157.19782,20.5465509 Z" id="Path" fill="#F2F2F2" fill-rule="nonzero"></path>
                                            <path d="M152.481481,25.9196629 C151.706463,25.7534375 150.905368,25.8519657 150.1798,26.2027514 C149.297273,26.6511946 148.287915,26.6511946 147.405389,26.2027514 C146.360805,25.6840415 145.168235,25.7104573 144.142312,26.2750293 C143.85321,26.4489116 143.531183,26.5405482 143.203934,26.5420561 C141.881353,26.5420561 140.780087,25.030243 140.548148,23.0365773 C140.81168,22.8194049 141.035893,22.5467508 141.208554,22.2334893 C141.984043,20.8160391 143.186229,19.9065421 144.535369,19.9065421 C145.884508,19.9065421 147.070759,20.8039928 147.846249,22.207389 C148.316988,23.0682532 149.150258,23.5875304 150.04347,23.5766539 L150.07711,23.5766539 C151.12526,23.5565767 152.03708,24.5142591 152.481481,25.9196629 Z" id="Path" fill="#000000" fill-rule="nonzero" opacity="0.03"></path>
                                            <path d="M129.533475,7.46004903 L127.990702,8.46144805 L128.927321,6.71273633 C128.661841,6.49655777 128.333607,6.3769302 127.994354,6.37270905 L127.968793,6.37270905 C127.861778,6.37499243 127.754794,6.36685996 127.649284,6.34842139 L127.125289,6.68844867 L127.349858,6.26995356 C126.97975,6.13823762 126.660089,5.88963793 126.436974,5.56000649 L125.500356,6.16719806 L126.091904,5.06678011 C125.587665,4.40063813 124.817279,4.00201578 123.994098,3.98130841 C123.019138,3.98130841 122.151899,4.57542201 121.593214,5.49835319 C121.255351,6.06049615 120.649428,6.39474347 120.004797,6.37457733 L119.953675,6.37457733 C118.878298,6.37457733 118.007407,7.62258954 118.007407,9.16018542 C118.007407,10.6977813 118.876473,11.9439252 119.951849,11.9439252 C120.188044,11.9429038 120.420473,11.8832832 120.629209,11.770175 C121.369409,11.4010847 122.230829,11.3840018 122.984449,11.723468 C123.301693,11.8680588 123.644984,11.9431523 123.992272,11.9439252 C124.335072,11.9432772 124.673971,11.869465 124.987315,11.7272046 C125.735642,11.3963096 126.587353,11.4133452 127.322471,11.7739116 C127.529887,11.8848467 127.760316,11.9431548 127.994354,11.9439252 C129.067905,11.9439252 129.940741,10.695913 129.940741,9.15831714 C129.945418,8.56634332 129.805456,7.98254143 129.533475,7.46004903 L129.533475,7.46004903 Z" id="Path" fill="#F2F2F2" fill-rule="nonzero"></path>
                                            <path d="M127.288889,10.2419087 C126.684058,10.1420361 126.058957,10.2019009 125.493107,10.4138875 C124.805364,10.6824431 124.019624,10.6824431 123.331881,10.4138875 C122.520467,10.1032739 121.594409,10.1189831 120.797353,10.4568822 C120.572985,10.5615866 120.322694,10.6165055 120.068431,10.6168224 C119.038901,10.6168224 118.184235,9.71049434 118.007407,8.51524192 C118.212818,8.38438143 118.387018,8.21963131 118.520207,8.0302618 C119.123386,7.1806867 120.056642,6.63551402 121.103854,6.63551402 C122.151066,6.63551402 123.068605,7.17380755 123.677677,8.01134414 C124.042499,8.52869418 124.690529,8.84070538 125.385046,8.83340264 L125.410587,8.83340264 C126.235783,8.83168285 126.943093,9.40609192 127.288889,10.2419087 Z" id="Path" fill="#000000" fill-rule="nonzero" opacity="0.03"></path>
                                            <path d="M27.2553386,140.42452 C25.6471576,140.435841 23.5172029,140.654174 23.0886031,140.42452 C22.7624946,140.251471 22.6320511,139.632053 22.5873277,139.345794 L22.5407407,139.345794 C22.5407407,139.345794 22.6301877,140.343656 23.0587875,140.570075 C23.4873873,140.796494 25.6173419,140.579779 27.2273864,140.570075 C27.6913923,140.570075 27.8516514,140.422903 27.8441975,140.211039 C27.7789757,140.342039 27.6056723,140.422903 27.2553386,140.42452 Z" id="Path" fill="#000000" fill-rule="nonzero" opacity="0.2"></path>
                                            <path d="M121.117363,139.345794 C120.915788,138.865097 121.145116,138.275064 121.4095,137.837723 C121.673883,137.400382 121.993773,136.961157 121.985009,136.412596 C121.976245,135.626513 121.329162,135.162781 120.816462,134.746177 C120.433447,134.436206 120.079974,134.06924 119.763309,133.652825 C119.630359,133.490313 119.520596,133.298888 119.439037,133.087298 C119.350005,132.768876 119.316587,132.429 119.341171,132.091971 C119.364542,130.969715 119.407876,129.848715 119.471172,128.728972" id="Path" stroke="#3F3D56" stroke-width="4"></path>
                                            <path d="M118.008947,128.665451 C118.030388,128.214175 118.279809,127.804828 118.670876,127.579098 L118.968235,128.166095 L118.958052,127.454768 C119.10005,127.412949 119.248145,127.395716 119.395944,127.403814 C119.931717,127.429169 120.399449,127.77506 120.580971,128.280148 C120.762492,128.785237 120.622043,129.350017 120.225134,129.711052 C119.828225,130.072088 119.25305,130.158252 118.767894,129.929355 C118.282738,129.700457 117.98318,129.201592 118.008947,128.665451 L118.008947,128.665451 Z" id="Path" fill="#57B894" fill-rule="nonzero"></path>
                                            <path d="M119.482182,137.300431 C119.76968,137.857832 120.407765,138.137503 121.011832,137.970873 C121.615898,137.804243 122.02089,137.236842 121.982697,136.610672 C121.944504,135.984502 121.473563,135.470658 120.853733,135.378861 C120.233904,135.287064 119.634551,135.642396 119.416933,136.230681 L120.246817,136.904379 L119.333333,136.700228 C119.335197,136.909221 119.38619,137.114838 119.482182,137.300431 L119.482182,137.300431 Z" id="Path" fill="#57B894" fill-rule="nonzero"></path>
                                            <path d="M120.600828,135.363013 C120.951354,135.37957 121.294067,135.255975 121.55338,135.019489 C121.812692,134.783004 121.967301,134.453054 121.983106,134.102413 C121.994972,133.892879 121.955914,133.683588 121.869271,133.492446 C121.709199,133.134032 121.397682,132.865679 121.019577,132.760484 L121.019577,133.305389 L120.718728,132.711687 L120.718728,132.711687 C119.988759,132.678334 119.36952,133.242233 119.334417,133.972287 C119.328378,134.124855 119.34761,134.277372 119.391334,134.423663 C119.554046,134.961991 120.039091,135.338699 120.600828,135.363013 Z" id="Path" fill="#57B894" fill-rule="nonzero"></path>
                                            <path d="M117.944581,132.708805 C118.507205,132.735281 119.025185,132.403341 119.236442,131.880932 C119.447699,131.358524 119.306156,130.759592 118.883428,130.387172 C118.460699,130.014752 117.848988,129.950075 117.357796,130.225863 L117.592102,130.868003 L117.111265,130.405254 C116.853225,130.641699 116.699369,130.970834 116.683402,131.320559 C116.676673,131.443802 116.687651,131.567373 116.716001,131.687496 C116.851777,132.264147 117.353119,132.680909 117.944581,132.708805 Z" id="Path" fill="#57B894" fill-rule="nonzero"></path>
                                            <path d="M118.155778,129.350823 C118.464883,129.373334 118.773988,129.439458 119.076911,129.45212 C119.393032,129.47952 119.7093,129.402142 119.92798,129.243899 C120.019116,129.147704 120.102359,129.04813 120.177325,128.945635 C120.261594,128.855714 120.376942,128.781311 120.513219,128.728972 C120.61983,128.869959 120.669614,129.027765 120.657468,129.186215 C120.623667,129.644411 120.098543,130.014846 119.428885,130.052886 C118.759227,130.090926 118.151655,129.784835 118.007407,129.336754 C118.058925,129.343789 118.108382,129.346602 118.155778,129.350823 Z" id="Path" fill="#000000" fill-rule="nonzero" opacity="0.1"></path>
                                            <path d="M117.930433,132.709163 C118.400201,132.725152 118.847534,132.568608 119.108524,132.296892 C119.369515,132.025175 119.405797,131.678229 119.204075,131.383178 C119.093617,131.434329 118.999144,131.500421 118.926302,131.577503 C118.847448,131.683769 118.758787,131.786384 118.660874,131.884709 C118.427176,132.045739 118.101375,132.125005 117.774057,132.100467 C117.451017,132.090465 117.138264,132.026166 116.817282,132.006162 C116.772015,132.006162 116.726748,132.006162 116.681481,132.006162 C116.826501,132.407231 117.335379,132.693665 117.930433,132.709163 Z" id="Path" fill="#000000" fill-rule="nonzero" opacity="0.1"></path>
                                            <path d="M120.566537,134.036339 C120.925746,134.048076 121.276948,133.960459 121.542684,133.792813 C121.808419,133.625166 121.966858,133.391263 121.983055,133.142691 C121.995215,132.99415 121.955188,132.845782 121.8664,132.71028 C121.755231,132.761069 121.658496,132.82556 121.581014,132.900541 C121.491973,133.010367 121.393183,133.11627 121.285211,133.217642 C121.027633,133.385314 120.679453,133.469634 120.326979,133.449702 C119.989514,133.449702 119.666632,133.387724 119.333333,133.370427 C119.499312,133.750608 119.993223,134.017313 120.566537,134.036339 Z" id="Path" fill="#000000" fill-rule="nonzero" opacity="0.1"></path>
                                            <path d="M119.333333,137.492907 C119.678609,137.952106 120.475458,138.144695 121.153182,137.932743 C121.830906,137.72079 122.155974,137.177332 121.895574,136.691589 C121.779572,136.74443 121.675455,136.809019 121.586636,136.883241 C121.470747,137.004251 121.345247,137.120632 121.210726,137.231837 C120.884942,137.422579 120.471274,137.524437 120.046267,137.518562 C119.808128,137.519166 119.570123,137.510601 119.333333,137.492907 Z" id="Path" fill="#000000" fill-rule="nonzero" opacity="0.1"></path>
                                            <path d="M121.985185,138.553732 C121.985185,138.553732 121.272021,138.374248 121.056962,138.224677 C120.841903,138.075107 119.960854,137.895623 119.908129,138.136295 C119.855405,138.376967 118.836996,139.331498 119.641733,139.338297 C120.446471,139.345096 121.510667,139.37365 121.722952,139.245835 C121.935236,139.118021 121.985185,138.553732 121.985185,138.553732 Z" id="Path" fill="#656380" fill-rule="nonzero"></path>
                                            <path d="M119.6238,140.519978 C120.429449,140.519978 121.49624,140.579257 121.707375,140.36494 C121.871283,140.203063 121.936568,139.614831 121.957404,139.345794 L121.985185,139.345794 C121.985185,139.345794 121.939347,140.291981 121.725433,140.506298 C121.511519,140.720615 120.444729,140.670456 119.641858,140.661336 C119.408497,140.661336 119.329321,140.522258 119.333489,140.321621 C119.362659,140.435619 119.451558,140.519978 119.6238,140.519978 Z" id="Path" fill="#000000" fill-rule="nonzero" opacity="0.2"></path>
                                            <rect id="Rectangle" fill="#3F3D56" fill-rule="nonzero" x="35.8" y="140.400275" width="91.4888889" height="1"></rect>
                                            <rect id="Rectangle" fill="#3F3D56" fill-rule="nonzero" x="129.940741" y="140.400275" width="49.0592593" height="1"></rect>
                                            <rect id="Rectangle" fill="#3F3D56" fill-rule="nonzero" x="1.32592593" y="140.400275" width="30.4962963" height="1"></rect>
                                        </g>
                                    </g>
                                </g>
                            </g>
                            <path d="M615.999979,89.8451935 L615.999979,498.154798 C615.999979,504.696718 610.693664,510 604.147966,510 L130.852039,510 C129.745439,510 128.644277,509.845318 127.581624,509.536736 C122.498032,508.084927 118.999979,503.438813 118.999979,498.154798 L118.999979,260.567825 C118.999979,259.866507 118.999979,259.171623 118.999979,258.47674 L118.999979,127.259534 C119.276832,127.259534 119.54722,127.259534 119.824047,127.298138 C130.43358,109.224728 144.616106,92.6182942 161.669901,78 L604.147966,78 C610.693664,78 615.999979,83.3032738 615.999979,89.8451935 Z" id="Path" fill="#FFFFFF" fill-rule="nonzero"></path>
                            <g id="Group" transform="translate(166.000000, 120.000000)">
                                <polyline id="Path" stroke="#3F3D56" points="0 0 0 306 359 306"></polyline>
                                <text id="720" font-family="Inter-Bold, Inter" font-size="12" font-weight="bold" fill="#212B36">
                                    <tspan x="36" y="185">720</tspan>
                                </text>
                                <text id="790" font-family="Inter-Bold, Inter" font-size="12" font-weight="bold" fill="#212B36">
                                    <tspan x="97" y="158">790</tspan>
                                </text>
                                <text id="830" font-family="Inter-Bold, Inter" font-size="12" font-weight="bold" fill="#212B36">
                                    <tspan x="157" y="125">830</tspan>
                                </text>
                                <text id="890" font-family="Inter-Bold, Inter" font-size="12" font-weight="bold" fill="#212B36">
                                    <tspan x="217" y="69">890</tspan>
                                </text>
                                <text id="945" font-family="Inter-Bold, Inter" font-size="12" font-weight="bold" fill="#212B36">
                                    <tspan x="279" y="23">945</tspan>
                                </text>
                                <rect id="Rectangle" fill="#0181C5" fill-rule="nonzero" x="46" y="205" width="30" height="78"></rect>
                                <rect id="Rectangle" fill="#0181C5" fill-rule="nonzero" x="107" y="177" width="30" height="106"></rect>
                                <rect id="Rectangle" fill="#0181C5" fill-rule="nonzero" x="168" y="145" width="30" height="138"></rect>
                                <rect id="Rectangle" fill="#0181C5" fill-rule="nonzero" x="229" y="87" width="30" height="196"></rect>
                                <rect id="Rectangle" fill="#0181C5" fill-rule="nonzero" x="289" y="41" width="30" height="242"></rect>
                                <rect id="Rectangle" stroke="#3F3D56" x="36" y="195" width="30" height="78"></rect>
                                <rect id="Rectangle" stroke="#3F3D56" x="98" y="168" width="30" height="106"></rect>
                                <rect id="Rectangle" stroke="#3F3D56" x="158" y="135" width="30" height="138"></rect>
                                <rect id="Rectangle" stroke="#3F3D56" x="219" y="77" width="30" height="196"></rect>
                                <rect id="Rectangle" stroke="#3F3D56" x="281" y="31" width="30" height="242"></rect>
                            </g>
                            <ellipse id="Oval" fill="#0181C5" fill-rule="nonzero" opacity="0.1" cx="511" cy="442" rx="95" ry="7"></ellipse>
                            <circle id="Oval" fill="#0181C5" fill-rule="nonzero" opacity="0.1" cx="46" cy="91" r="14"></circle>
                            <circle id="Oval" fill="#0181C5" fill-rule="nonzero" opacity="0.1" cx="103" cy="14" r="14"></circle>
                            <circle id="Oval" fill="#0181C5" fill-rule="nonzero" opacity="0.1" cx="98.5" cy="66.5" r="23.5"></circle>
                            <g id="Maledaily1-4" transform="translate(519.000000, 283.500000) scale(-1, 1) translate(-519.000000, -283.500000) translate(464.000000, 162.000000)">
                                <g id="Leg-Enjoy-M-1d" transform="translate(8.000000, 103.000000)">
                                    <g id="Leg1">
                                        <g id="Group-20" transform="translate(0.817040, 119.287400)">
                                            <polygon id="Rectangle" fill="#616988" points="1.18066667 0 9.68146667 0 8.26466667 11.8136986 0.472266667 11.8136986"></polygon>
                                            <path d="M0.472266667,6.36945852 L0,18.8919791 L26.2108,18.8919791 L26.2108,17.0625947 C25.2293497,15.1079896 23.3536725,14.130687 20.5837684,14.130687 C16.4289123,14.130687 12.3367998,13.1400256 10.8814524,11.5489223 C9.91122078,10.4881868 9.37662418,8.76169889 9.2776626,6.36945852 L0.472266667,6.36945852 Z" id="Path-69" fill="#4F2511"></path>
                                            <rect id="Rectangle" fill="#4F2511" x="0" y="17.7205479" width="26.2108" height="2.12646575"></rect>
                                        </g>
                                        <path d="M6.83843964,0 L4.32596215,63.1933152 C2.17385627,70.2529512 1.09780333,76.1109618 1.09780333,80.7673471 C1.09780333,85.4237323 0.731868885,100.006895 0,124.516837 L11.5611063,124.516837 L33.1673063,0 L6.83843964,0 Z" id="Path-5" fill="#203584"></path>
                                    </g>
                                    <g id="Leg2" transform="translate(10.389867, 0.000000)">
                                        <g id="Group-16" transform="translate(30.107000, 119.523673)">
                                            <polygon id="Rectangle" fill="#7680A4" points="1.67610782e-14 0 8.5008 0 9.68146667 11.8136986 1.88906667 11.8136986"></polygon>
                                            <path d="M0.7084,6.36945852 L0.7084,18.8919791 L26.9192,18.8919791 L26.9192,17.0625947 C25.6229053,15.1079896 23.5898059,14.130687 20.8199018,14.130687 C16.6650456,14.130687 12.5729331,13.1400256 11.1175857,11.5489223 C10.1473541,10.4881868 9.61275751,8.76169889 9.51379593,6.36945852 L0.7084,6.36945852 Z" id="Path-69" fill="#823E1D"></path>
                                            <rect id="Rectangle" fill="#34180A" x="0.7084" y="17.7205479" width="26.2108" height="2.12646575"></rect>
                                        </g>
                                        <path d="M0.108639644,0 C0.469771702,4.13787552 1.77543709,8.19699305 4.02563582,12.1773526 C6.27583454,16.1577121 9.4705666,20.0593137 13.609832,23.8821572 L22.9899225,65.7923289 C22.4120388,72.379417 22.123097,78.0011536 22.123097,82.6575388 C22.123097,87.313924 24.2759181,101.345781 28.5815604,124.753111 L41.3233333,124.753111 L35.0043421,0 L0.108639644,0 Z" id="Path-5" fill="#2E47A6"></path>
                                        <polygon id="Path-17" fill="#203584" points="35.0276732 5.6263629 29.6865535 14.433368 28.8082667 4.96175342"></polygon>
                                        <line x1="28.6700736" y1="0.723515586" x2="36.6719831" y2="124.516837" id="Path-74" stroke="#98ABF4" stroke-width="0.5544"></line>
                                    </g>
                                </g>
                                <g id="Group-5">
                                    <g id="Hand1" transform="translate(42.444160, 0.000000)">
                                        <g id="Group" transform="translate(0.308364, 0.061798)" fill="#FFC4A7">
                                            <path d="M35.4138767,11.9977986 C34.3872746,10.006555 33.9440092,8.71158921 34.0840803,8.11290132 C34.2241514,7.51421344 35.0890655,7.24139263 36.6788227,7.2944389 L35.4138767,11.9977986 Z" id="Path-29" transform="translate(35.368839, 9.642881) rotate(-9.000000) translate(-35.368839, -9.642881) "></path>
                                            <path d="M27.6492216,14.01654 L21.9634842,24.3237671 C43.8051537,39.836677 54.9024271,48.3108477 55.2553047,49.7462793 C55.9371021,52.519687 57.8213715,57.1304774 56.6892416,57.3174256 C55.888769,57.4496074 54.9027519,54.675601 53.8067808,53.3063389 C53.6323821,53.0884521 52.7058698,55.0176248 52.075655,54.6537701 C46.7041403,51.5525247 45.6120369,47.9173089 45.2451821,47.7367463 C43.9678513,47.1080555 34.8654503,42.2639524 17.9379792,33.204437 C12.9642522,30.5425171 11.0387438,24.3875399 13.6086943,19.3656745 L18.9661048,8.89691495 L18.9661048,8.89691495 L27.6492216,14.01654 Z" id="Path" transform="translate(33.012216, 33.109451) rotate(-120.000000) translate(-33.012216, -33.109451) "></path>
                                        </g>
                                        <path d="M13.5913953,39.7799766 C17.4486603,39.7799766 20.5755914,42.9069076 20.5755914,46.7641726 L20.5755914,66.9627672 L20.5755914,66.9627672 L6.60719934,66.9627672 L6.60719934,46.7641726 C6.60719934,42.9069076 9.7341304,39.7799766 13.5913953,39.7799766 Z" id="Rectangle" fill="#FF4F4F" transform="translate(13.591395, 53.371372) scale(-1, 1) rotate(90.000000) translate(-13.591395, -53.371372) "></path>
                                    </g>
                                    <g id="Hand2" transform="translate(0.000000, 44.097745)">
                                        <path d="M8.49235504,19.5229174 L1.32278704,32.677515 C0.46977179,34.2426125 0.211012386,36.0632286 0.59417031,37.8040201 L6.83775039,66.1703159 L6.83775039,66.1703159 C6.3650062,72.7692201 7.33611148,76.4924294 9.75106622,77.3399437 C10.4564584,77.587497 12.0242034,83.3227419 13.4423845,81.601487 C13.7036823,81.2843483 13.8766618,78.4617621 13.9613229,73.1337282 L12.0703462,62.7360513 L11.1692988,37.0939914 L16.561416,26.1230727 L8.49235504,19.5229174 Z" id="Path-30" fill="#FFC4A7"></path>
                                        <path d="M16.6237536,1.66307333 C20.4780658,1.66580994 23.6019196,4.78966534 23.6046541,8.64397759 L23.6190132,28.8829463 L23.6190132,28.8829463 L9.6671107,28.8730403 L9.65275163,8.63407157 C9.6500221,4.78682508 12.7666189,1.66580286 16.6138654,1.66307333 C16.6171614,1.66307099 16.6204575,1.66307099 16.6237536,1.66307333 Z" id="Rectangle" fill="#FF4F4F" transform="translate(16.633408, 15.270533) rotate(31.000000) translate(-16.633408, -15.270533) "></path>
                                        <polygon id="Path-65" fill-opacity="0.221263112" fill="#080708" points="15.4859278 15.2705303 10.3134675 27.3958665 14.3158811 29.7000804"></polygon>
                                    </g>
                                    <g id="Base" transform="translate(11.715788, 46.387176)" fill="#FF4F4F">
                                        <path d="M12.2625173,0 L35.124893,0 C39.6156308,3.16364122e-15 43.256093,3.64046224 43.256093,8.1312 L43.256093,62.0291307 L43.256093,62.0291307 L0,62.0291307 L4.15482983,7.51328676 C4.47787962,3.27452543 8.0114635,4.3336196e-15 12.2625173,0 Z" id="Rectangle"></path>
                                    </g>
                                    <g id="Head-M-1b" transform="translate(24.109953, 13.021382)">
                                        <path d="M22.0080682,14.494897 L24.3104387,19.0175344 C24.4030445,19.1994436 24.3306498,19.421982 24.1487406,19.5145878 C24.1259153,19.5262076 24.101944,19.5354233 24.0772131,19.5420864 L22.0080682,20.0995611 L22.0080682,20.0995611 L22.0080682,14.494897 Z" id="Path-45" fill="#F19B93"></path>
                                        <path d="M6.11957967,33.5152788 L16.1392317,33.5152788 L15.1937433,28.8041747 C17.9398703,29.097068 19.9380325,28.3495474 21.1882301,26.5616129 C22.4384277,24.7736783 22.9772625,19.2234124 22.8047344,9.91081514 L6.11957967,9.91081514 L6.11957967,33.5152788 Z" id="Path-7" fill="#FFC4A7"></path>
                                        <path d="M7.17021653,25.4563102 L9.6527357,25.4563102 C10.871622,25.4563251 11.9656066,24.708371 12.4079602,23.5725863 C13.0992459,21.7976447 13.2609677,20.1368321 12.8931255,18.5901483 C12.3979871,16.5082158 13.437905,15.1786481 16.0128792,14.6014451 L16.4447629,18.4616838 C16.4680294,18.6696428 16.6438624,18.8269007 16.8531189,18.8269007 C17.0685482,18.8269007 17.2557814,18.6789568 17.3056018,18.4693674 L18.2559535,14.4713377 C18.6899678,12.6454855 19.9648911,11.1340368 21.6914618,10.39847 L22.8361171,9.91081514 L22.8361171,9.91081514 C24.1515746,9.33805771 25.1943828,8.39650759 25.9645417,7.08616478 C26.7347006,5.77582198 27.1407836,4.20948426 27.1827907,2.38715163 C16.8952696,0.280261376 10.5126876,-0.355803084 8.03504444,0.478958247 C5.55740133,1.31371958 4.04758341,3.07471719 3.50559068,5.76195108 C1.16853023,7.00495052 0,8.94032749 0,11.568082 C0,13.9812818 1.51709695,18.0826127 4.55129085,23.8720748 C5.06176108,24.8460583 6.07056947,25.4563102 7.17021653,25.4563102 Z" id="Path-31" fill="#8A5835"></path>
                                        <polygon id="Path-70" fill="#F19B93" points="15.1937433 28.8041747 13.1047704 28.5006123 16.1392317 33.5152788"></polygon>
                                    </g>
                                </g>
                            </g>
                        </g>
                    </g>
                </g>
            </g>
        </g>
    </g>
</svg>