<svg xmlns="http://www.w3.org/2000/svg" width="19" height="18" viewBox="0 0 19 18">
  <path fill="#FFF" fill-rule="evenodd" d="M17.6578198.0169939907L5.16357877.0169939907C4.428501.0178610654 3.83267014.613518524 3.83180307 1.3487697L3.83180307 15.8580151C3.8324967 16.3933265 3.65024458 16.912511 3.3153932 17.3300781L17.0385788 17.3300781C18.1154443 17.3286909 18.9882082 16.4561003 18.9895955 15.3790615L18.9895955 1.3487697C18.9887285.613518524 18.3928976.0178610654 17.6578198.0169939907zM6.72303955 4.21087362L11.6240782 4.21087362C11.8692775 4.21087362 12.0680034 4.4095995 12.0680034 4.65479886 12.0680034 4.89999816 11.8692775 5.09872409 11.6240782 5.09872409L6.72303955 5.09872409C6.47801364 5.09872409 6.27911431 4.89999816 6.27911431 4.65479886 6.27911431 4.4095995 6.47801364 4.21087362 6.72303955 4.21087362zM16.0633305 12.6454531L6.72303955 12.6454531C6.47801364 12.6454531 6.27911431 12.4467271 6.27911431 12.2015278 6.27911431 11.9563284 6.47801364 11.7576026 6.72303955 11.7576026L16.0633305 11.7576026C16.3085298 11.7576026 16.5072558 11.9563284 16.5072558 12.2015278 16.5072558 12.4467271 16.3085298 12.6454531 16.0633305 12.6454531zM16.0633305 9.09405119L6.72303955 9.09405119C6.47801364 9.09405119 6.27911431 8.89532526 6.27911431 8.65012596 6.27911431 8.4049266 6.47801364 8.20620072 6.72303955 8.20620072L16.0633305 8.20620072C16.3085298 8.20620072 16.5072558 8.4049266 16.5072558 8.65012596 16.5072558 8.89532526 16.3085298 9.09405119 16.0633305 9.09405119zM0 10.5427041L0 15.8580151C0 16.6709532.658951519 17.3300781 1.4718896 17.3300781 2.28482769 17.3300781 2.9439526 16.6709532 2.9439526 15.8580151L2.9439526 9.21092836 1.3317757 9.21092836C.596524533 9.21162199.000867039253 9.80745289 0 10.5427041z"/>
</svg>
