<?xml version="1.0" encoding="UTF-8"?>
<svg width="23px" height="15px" viewBox="0 0 23 15" version="1.1" xmlns="http://www.w3.org/2000/svg" xmlns:xlink="http://www.w3.org/1999/xlink">
    <!-- Generator: Sketch 51.1 (57501) - http://www.bohemiancoding.com/sketch -->
    <title>community-dark</title>
    <desc>Created with Sketch.</desc>
    <defs></defs>
    <g id="Page-1" stroke="none" stroke-width="1" fill="none" fill-rule="evenodd">
        <g id="History-/-Expanded-menu" transform="translate(-43.000000, -467.000000)" fill="#243847">
            <g id="Nav" transform="translate(0.000000, -4.000000)">
                <g id="Group" transform="translate(43.000000, 150.000000)">
                    <path d="M15.65,329.275 C16.5500045,329.275 17.5499945,329.408332 18.65,329.675 C19.8666727,329.991668 20.8583295,330.399997 21.625,330.9 C22.5250045,331.500003 22.975,332.174996 22.975,332.925 L22.975,335.525 L16.725,335.525 L16.725,332.925 C16.725,331.508326 16.0416735,330.308338 14.675,329.325 C14.9083345,329.291667 15.2333312,329.275 15.65,329.275 Z M7.35,329.275 C8.2500045,329.275 9.24166125,329.408332 10.325,329.675 C11.5416727,329.991668 12.5249962,330.399997 13.275,330.9 C14.1750045,331.500003 14.625,332.174996 14.625,332.925 L14.625,335.525 L0.025,335.525 L0.025,332.925 C0.025,332.174996 0.4749955,331.500003 1.375,330.9 C2.1416705,330.399997 3.13332725,329.991668 4.35,329.675 C5.4500055,329.408332 6.4499955,329.275 7.35,329.275 Z M7.35,327.225 C6.79999725,327.225 6.28333575,327.083335 5.8,326.8 C5.31666425,326.516665 4.93333475,326.133336 4.65,325.65 C4.36666525,325.166664 4.225,324.650003 4.225,324.1 C4.225,323.549997 4.36666525,323.033336 4.65,322.55 C4.93333475,322.066664 5.31666425,321.683335 5.8,321.4 C6.28333575,321.116665 6.79999725,320.975 7.35,320.975 C7.90000275,320.975 8.41249762,321.116665 8.8875,321.4 C9.36250237,321.683335 9.73749862,322.062498 10.0125,322.5375 C10.2875014,323.012502 10.425,323.53333 10.425,324.1 C10.425,324.66667 10.2875014,325.187498 10.0125,325.6625 C9.73749862,326.137502 9.36250237,326.516665 8.8875,326.8 C8.41249762,327.083335 7.90000275,327.225 7.35,327.225 Z M15.65,327.225 C15.0999972,327.225 14.5833357,327.083335 14.1,326.8 C13.6166642,326.516665 13.2333347,326.133336 12.95,325.65 C12.6666652,325.166664 12.525,324.650003 12.525,324.1 C12.525,323.549997 12.6666652,323.033336 12.95,322.55 C13.2333347,322.066664 13.6166642,321.683335 14.1,321.4 C14.5833357,321.116665 15.0999972,320.975 15.65,320.975 C16.2000027,320.975 16.7166642,321.116665 17.2,321.4 C17.6833357,321.683335 18.0666652,322.066664 18.35,322.55 C18.6333347,323.033336 18.775,323.549997 18.775,324.1 C18.775,324.650003 18.6333347,325.166664 18.35,325.65 C18.0666652,326.133336 17.6833357,326.516665 17.2,326.8 C16.7166642,327.083335 16.2000027,327.225 15.65,327.225 Z" id="community-dark"></path>
                </g>
            </g>
        </g>
    </g>
</svg>