<?xml version="1.0" encoding="UTF-8"?>
<svg width="22px" height="20px" viewBox="0 0 22 20" version="1.1" xmlns="http://www.w3.org/2000/svg" xmlns:xlink="http://www.w3.org/1999/xlink">
    <!-- Generator: Sketch 51.1 (57501) - http://www.bohemiancoding.com/sketch -->
    <title>history</title>
    <desc>Created with Sketch.</desc>
    <defs></defs>
    <g id="Page-1" stroke="none" stroke-width="1" fill="none" fill-rule="evenodd">
        <g id="History-/-Expanded-menu" transform="translate(-43.000000, -225.000000)" fill="#FFFFFF">
            <g id="Nav" transform="translate(0.000000, -4.000000)">
                <g id="Group" transform="translate(43.000000, 150.000000)">
                    <path d="M11.5,85.1 L13.075,85.1 L13.075,89.5 L16.725,91.7 L15.95,92.95 L11.5,90.275 L11.5,85.1 Z M12.525,79.875 C14.2250085,79.875 15.7999927,80.2999957 17.25,81.15 C18.6666737,81.9833375 19.7916625,83.1083263 20.625,84.525 C21.4750042,85.9750073 21.9,87.5499915 21.9,89.25 C21.9,90.9500085 21.4750042,92.5249927 20.625,93.975 C19.7916625,95.3916737 18.6666737,96.5166625 17.25,97.35 C15.7999927,98.2000043 14.2250085,98.625 12.525,98.625 C11.258327,98.625 10.0500057,98.3833358 8.9,97.9 C7.7999945,97.433331 6.80833775,96.766671 5.925,95.9 L7.4,94.375 C8.08333675,95.0583367 8.84999575,95.5833315 9.7,95.95 C10.6000045,96.3333353 11.5416617,96.525 12.525,96.525 C13.85834,96.525 15.0833277,96.2000033 16.2,95.55 C17.3166722,94.8999967 18.1999967,94.0250055 18.85,92.925 C19.51667,91.8083278 19.85,90.58334 19.85,89.25 C19.85,87.91666 19.51667,86.6916722 18.85,85.575 C18.1999967,84.4749945 17.3166722,83.6000033 16.2,82.95 C15.0833277,82.2999967 13.85834,81.975 12.525,81.975 C11.19166,81.975 9.96667225,82.2999967 8.85,82.95 C7.7499945,83.6000033 6.87500325,84.4749945 6.225,85.575 C5.57499675,86.6916722 5.25,87.91666 5.25,89.25 L8.375,89.25 L4.175,93.45 L4.075,93.3 L0.025,89.25 L3.15,89.25 C3.15,87.5499915 3.57499575,85.9750073 4.425,84.525 C5.2583375,83.1083263 6.38332625,81.9833375 7.8,81.15 C9.25000725,80.2999957 10.8249915,79.875 12.525,79.875 Z" id="history"></path>
                </g>
            </g>
        </g>
    </g>
</svg>