<?xml version="1.0" encoding="UTF-8"?>
<svg width="74px" height="26px" viewBox="0 0 74 26" version="1.1" xmlns="http://www.w3.org/2000/svg" xmlns:xlink="http://www.w3.org/1999/xlink">
    <title>Group 10</title>
    <defs>
        <path d="M0,7.04275 C11.9828119,-0.8050625 22.3639208,6.3305 34.2598812,9.5308125 L34.2598812,9.5308125 C45.6811881,12.6053125 59.9820594,11.3795 67.3617426,0.7816875 L67.3617426,0.7816875 C57.2364752,8.0829375 44.3232079,7.887 32.8480396,4.24875 L32.8480396,4.24875 C26.9966733,2.393875 20.6625743,0.2866875 14.6711683,0.287374832 L14.6711683,0.287374832 C9.30859406,0.287374832 4.2200396,1.9751875 0,7.04275" id="path-1"></path>
        <path d="M0.389148515,6.98629412 C12.3719604,-0.399235294 22.7537426,6.31658824 34.6490297,9.32864706 L34.6490297,9.32864706 C46.0703366,12.2216471 60.3718812,11.0679412 67.7508911,1.09417647 L67.7508911,1.09417647 C57.6256238,7.96529412 44.7123564,7.78088235 33.2365149,4.35729412 L33.2365149,4.35729412 C27.3858218,2.61152941 21.0517228,0.628294118 15.0603168,0.628941018 L15.0603168,0.628941018 C9.69774257,0.628941018 4.60918812,2.21747059 0.389148515,6.98629412" id="path-3"></path>
        <path d="M0.10570297,6.69770588 C12.0885149,-0.688470588 22.4696238,6.02735294 34.3662574,9.04005882 L34.3662574,9.04005882 C45.7868911,11.9324118 60.0884356,10.7793529 67.4674455,0.805588235 L67.4674455,0.805588235 C57.3421782,7.67670588 44.4295842,7.49229412 32.9537426,4.06870588 L32.9537426,4.06870588 C27.1023762,2.32294118 20.7682772,0.339705882 14.7768713,0.339705882 L14.7768713,0.339705882 C9.41429703,0.340352941 4.32574257,1.92888235 0.10570297,6.69770588" id="path-5"></path>
    </defs>
    <g id="Page-1" stroke="none" stroke-width="1" fill="none" fill-rule="evenodd">
        <g id="Lighthouse---Visual-Design" transform="translate(-135.000000, -187.000000)">
            <g id="Group-10" transform="translate(135.000000, 187.000000)">
                <g id="Group-3" transform="translate(0.000000, 15.000000)">
                    <mask id="mask-2" fill="white">
                        <use xlink:href="#path-1"></use>
                    </mask>
                    <g id="Clip-2"></g>
                    <path d="M0,7.04275 C11.9828119,-0.8050625 22.3639208,6.3305 34.2598812,9.5308125 L34.2598812,9.5308125 C45.6811881,12.6053125 59.9820594,11.3795 67.3617426,0.7816875 L67.3617426,0.7816875 C57.2364752,8.0829375 44.3232079,7.887 32.8480396,4.24875 L32.8480396,4.24875 C26.9966733,2.393875 20.6625743,0.2866875 14.6711683,0.287374832 L14.6711683,0.287374832 C9.30859406,0.287374832 4.2200396,1.9751875 0,7.04275" id="Fill-1" fill="#D8D8D8" mask="url(#mask-2)"></path>
                </g>
                <g id="Group-6" transform="translate(3.000000, 7.000000)">
                    <mask id="mask-4" fill="white">
                        <use xlink:href="#path-3"></use>
                    </mask>
                    <g id="Clip-5"></g>
                    <path d="M0.389148515,6.98629412 C12.3719604,-0.399235294 22.7537426,6.31658824 34.6490297,9.32864706 L34.6490297,9.32864706 C46.0703366,12.2216471 60.3718812,11.0679412 67.7508911,1.09417647 L67.7508911,1.09417647 C57.6256238,7.96529412 44.7123564,7.78088235 33.2365149,4.35729412 L33.2365149,4.35729412 C27.3858218,2.61152941 21.0517228,0.628294118 15.0603168,0.628941018 L15.0603168,0.628941018 C9.69774257,0.628941018 4.60918812,2.21747059 0.389148515,6.98629412" id="Fill-4" fill="#0091FF" mask="url(#mask-4)"></path>
                </g>
                <g id="Group-9" transform="translate(6.000000, 0.000000)">
                    <mask id="mask-6" fill="white">
                        <use xlink:href="#path-5"></use>
                    </mask>
                    <g id="Clip-8"></g>
                    <path d="M0.10570297,6.69770588 C12.0885149,-0.688470588 22.4696238,6.02735294 34.3662574,9.04005882 L34.3662574,9.04005882 C45.7868911,11.9324118 60.0884356,10.7793529 67.4674455,0.805588235 L67.4674455,0.805588235 C57.3421782,7.67670588 44.4295842,7.49229412 32.9537426,4.06870588 L32.9537426,4.06870588 C27.1023762,2.32294118 20.7682772,0.339705882 14.7768713,0.339705882 L14.7768713,0.339705882 C9.41429703,0.340352941 4.32574257,1.92888235 0.10570297,6.69770588" id="Fill-7" fill="#D8D8D8" mask="url(#mask-6)"></path>
                </g>
            </g>
        </g>
    </g>
</svg>